<svg width="150" height="40" viewBox="0 0 150 40" fill="none" xmlns="http://www.w3.org/2000/svg">
<path d="M43.0012 20.7708L33.5895 30.1825L26.3684 37.3631L25.557 38.1338C25.3948 38.2961 25.2325 38.4178 25.0702 38.5395C24.9891 38.5801 24.9079 38.6612 24.9079 38.6612L24.4617 38.9858C21.8653 40.6085 18.3765 40.2434 16.1453 38.0121L1.25684 22.9614C-0.44701 21.217 -0.406442 18.4178 1.33798 16.714L17.2812 1.25758C19.0256 -0.40571 21.7436 -0.40571 23.4475 1.29814L26.5712 4.42188L26.6929 4.54358L35.1311 12.9411L43.0012 20.7708Z" fill="#24C6A1"/>
<path d="M42.9999 20.7708L33.5882 30.1825L26.3671 37.3631L25.5557 38.1338C25.3935 38.2961 25.2312 38.4178 25.0689 38.5395C24.9878 38.5801 24.9066 38.6612 24.9066 38.6612L24.4604 38.9858C24.6632 38.7424 26.6916 36.2677 24.1358 33.0629L14.2373 22.8803C12.5334 21.1359 12.574 18.3367 14.3184 16.6328L26.5699 4.42188L26.6916 4.54358L35.1298 12.9411L42.9999 20.7708Z" fill="#0FA47F"/>
<path d="M44.339 10.426L41.0936 7.09942L35.7386 1.54162C34.0753 -0.202807 31.2762 -0.243375 29.5317 1.41991L27.5845 3.40774L26.5703 4.42194L26.692 4.54364L33.7508 11.5619C34.481 12.2921 34.481 13.5092 33.7508 14.2394L28.8015 19.0264C27.0571 20.7303 27.0165 23.5294 28.7609 25.2739L33.6291 30.1826L43.0003 20.7708L44.2985 19.5132C46.7731 16.998 46.8137 12.9412 44.339 10.426Z" fill="#5718FF"/>
<path d="M58.1328 9.16829C58.1328 7.70784 59.0253 6.89648 60.6074 6.89648C62.1896 6.89648 63.0415 7.70784 63.0415 9.16829C63.0415 10.6287 62.1896 11.4807 60.6074 11.4807C59.0253 11.4401 58.1328 10.5882 58.1328 9.16829ZM62.3924 31.4807H58.7413V14.3204H62.3924V31.4807Z" fill="#112945"/>
<path d="M78.0107 14.3202L77.4428 17.6873C76.9559 17.4034 76.2257 17.2411 75.2927 17.2411C73.2237 17.2411 70.9519 18.9044 70.9519 22.3932V31.4804H67.3008V14.3202H70.4245L70.749 17.4034C71.6821 15.1721 73.5077 13.9551 76.1852 13.9551C76.8342 13.9956 77.5239 14.0768 78.0107 14.3202Z" fill="#112945"/>
<path d="M96.2681 22.921C96.2681 28.5194 93.0633 31.846 87.7083 31.846C82.3533 31.846 79.1484 28.5194 79.1484 22.921C79.1484 17.3227 82.3533 13.9961 87.7083 13.9961C93.0633 13.9961 96.2681 17.3227 96.2681 22.921ZM82.8807 22.921C82.8807 26.8156 84.6251 28.9657 87.7083 28.9657C90.7914 28.9657 92.5764 26.8156 92.5764 22.921C92.5764 19.0265 90.7914 16.8764 87.7083 16.8764C84.6251 16.8764 82.8807 19.0265 82.8807 22.921Z" fill="#112945"/>
<path d="M110.831 14.3202L110.263 17.6873C109.776 17.4034 109.046 17.2411 108.113 17.2411C106.044 17.2411 103.772 18.9044 103.772 22.3932V31.4804H100.121V14.3202H103.245L103.569 17.4034C104.502 15.1721 106.328 13.9551 109.005 13.9551C109.655 13.9956 110.344 14.0768 110.831 14.3202Z" fill="#112945"/>
<path d="M129.005 14.3203V31.4806H125.76L125.638 28.7219C124.421 30.872 122.271 31.8457 119.553 31.8457C116.105 31.8457 113.387 30.1012 113.387 25.6388V14.3203H117.038V24.6246C117.038 27.8294 118.417 28.7625 120.567 28.7625C123.164 28.7625 125.354 27.1804 125.354 23.5292V14.3203H129.005Z" fill="#112945"/>
<path d="M149.49 20.3648V31.4804H145.839V21.5413C145.839 18.1336 144.256 16.9977 142.187 16.9977C139.916 16.9977 137.522 18.4581 137.522 22.3932V31.4804H133.871V14.3202H137.116L137.279 17.1599C138.455 14.9287 140.605 13.9551 143.08 13.9551C146.69 13.9956 149.49 16.0646 149.49 20.3648Z" fill="#112945"/>
</svg>
