<svg width="78" height="68" viewBox="0 0 78 68" fill="none" xmlns="http://www.w3.org/2000/svg">
<g clip-path="url(#clip0_2_312)">
<path d="M0 5C0 2.23858 2.23858 0 5 0H73C75.7614 0 78 2.23858 78 5V63C78 65.7614 75.7614 68 73 68H5C2.23858 68 0 65.7614 0 63V5Z" fill="#C0FEEF"/>
<g filter="url(#filter0_d_2_312)">
<path d="M28.4043 43.3718C28.3878 43.301 28.3637 43.2313 28.3319 43.1639C28.3002 43.0974 28.2608 43.0332 28.2152 42.9735C28.1694 42.9125 28.1161 42.8562 28.0577 42.8052C27.9992 42.7543 27.9345 42.7078 27.8647 42.668C27.7961 42.6281 27.7225 42.5938 27.6451 42.5662C27.5689 42.5385 27.489 42.5163 27.4077 42.5031C27.2439 42.4742 27.0751 42.4742 26.9126 42.5031C26.8313 42.5163 26.7514 42.5385 26.6739 42.5662C26.5977 42.5938 26.524 42.6281 26.4555 42.668C26.3858 42.7078 26.3209 42.7543 26.2626 42.8052C26.2042 42.8562 26.1508 42.9125 26.1051 42.9735C26.0582 43.0332 26.0201 43.0974 25.9884 43.1639C25.9566 43.2313 25.9312 43.301 25.916 43.3718C25.8996 43.4427 25.8906 43.5158 25.8906 43.5877C25.8906 43.6597 25.8996 43.7326 25.916 43.8035C25.9312 43.8743 25.9566 43.944 25.9884 44.0105C26.0201 44.078 26.0582 44.1422 26.1051 44.202C26.1508 44.2628 26.2042 44.3193 26.2626 44.3701C26.3209 44.4211 26.3858 44.4676 26.4555 44.5074C26.524 44.5474 26.5977 44.5817 26.6739 44.6093C26.7514 44.637 26.8313 44.6591 26.9126 44.6725C26.9938 44.6868 27.0777 44.6946 27.1601 44.6946C27.2426 44.6946 27.3265 44.6868 27.4077 44.6725C27.489 44.6591 27.5689 44.637 27.6451 44.6093C27.7225 44.5817 27.7961 44.5472 27.8647 44.5074C27.9345 44.4676 27.9992 44.4211 28.0577 44.3701C28.1161 44.3193 28.1694 44.2628 28.2152 44.202C28.2608 44.1422 28.3002 44.078 28.3319 44.0105C28.3637 43.944 28.3878 43.8743 28.4043 43.8035C28.4207 43.7326 28.4297 43.6597 28.4297 43.5877C28.4297 43.5158 28.4207 43.4427 28.4043 43.3718Z" fill="#31C5A1"/>
<path d="M64.8975 43.713C64.8926 43.702 64.8874 43.691 64.8822 43.6801C63.7137 41.2966 60.9732 40.4156 57.7301 41.3812L48.8855 43.5135C48.3741 42.1635 47.0987 41.0147 45.2952 40.4312C45.284 40.4276 45.2728 40.4241 45.2616 40.4208L35.5394 37.544C34.7301 36.6322 32.1955 34.2988 27.4495 34.2988C24.1329 34.2988 21.1989 36.2824 19.5203 38.4446H7.76953C7.06838 38.4446 6.5 38.94 6.5 39.5513V53.5051C6.5 54.1163 7.06838 54.6118 7.76953 54.6118H15.3178C16.0189 54.6118 16.5873 54.1163 16.5873 53.5051V52.5495H20.1271C20.8283 52.5495 21.3967 52.0541 21.3967 51.4428V51.1242C23.4601 51.2811 24.1389 51.6224 26.034 52.5751C27.4914 53.3078 29.6941 54.4151 33.6609 55.97C33.6794 55.9772 33.6979 55.984 33.7166 55.9904C34.4779 56.2515 35.9663 56.6618 37.8011 56.6618C39.0783 56.6618 40.5236 56.4629 42.0072 55.8765L61.5568 49.7744C61.5916 49.7634 61.6259 49.7513 61.6595 49.7378C63.5278 48.9884 66.312 46.8763 64.8975 43.713ZM14.0482 52.3982H9.03906V40.658H14.0482V52.3982ZM18.8576 50.3359H16.5873V40.658H18.8576V50.3359ZM60.645 47.7076L41.104 53.8072C41.087 53.8124 41.0638 53.8204 41.0468 53.8264C41.0296 53.8325 41.0126 53.8389 40.9957 53.8457C38.2741 54.936 35.6873 54.2833 34.6734 53.9396C30.8417 52.4366 28.7966 51.4085 27.3024 50.6572C25.2249 49.6129 24.2239 49.1095 21.3967 48.9061V39.9918C22.6 38.2724 24.9337 36.5124 27.4497 36.5124C31.7642 36.5124 33.5925 38.9588 33.6643 39.0576C33.8193 39.2774 34.0577 39.443 34.3379 39.5259L44.4275 42.5114C46.0388 43.0385 46.8905 44.2417 46.4991 45.4413C46.3183 45.9954 45.9011 46.455 45.3238 46.7353C44.7517 47.0133 44.0903 47.082 43.4598 46.9298L32.0858 43.7875C31.4169 43.6028 30.7037 43.9255 30.492 44.5083C30.2801 45.091 30.6503 45.7131 31.3186 45.8976L42.7126 49.0455C42.7247 49.0487 42.7367 49.052 42.7489 49.055C43.2037 49.1677 43.6668 49.2236 44.1272 49.2236C44.9699 49.2236 45.8034 49.0364 46.5598 48.6689C47.7293 48.1008 48.5751 47.1697 48.9413 46.0468C48.9705 45.9571 48.9963 45.8675 49.0188 45.7778L58.5509 43.4757C59.9276 43.0659 61.7347 42.9181 62.5393 44.5337C63.3721 46.4303 61.2076 47.4737 60.645 47.7076Z" fill="#31C5A1"/>
<path d="M52.0853 14.5564C52.0688 14.4856 52.0447 14.4159 52.0116 14.3483C51.9799 14.2819 51.9418 14.2177 51.8949 14.158C51.8491 14.0971 51.7958 14.0407 51.7374 13.9897C51.6791 13.9388 51.6142 13.8923 51.5444 13.8525C51.476 13.8127 51.4022 13.7783 51.3261 13.7507C51.2486 13.723 51.1687 13.7009 51.0887 13.6876C50.9249 13.6588 50.7561 13.6588 50.5923 13.6876C50.511 13.7009 50.4311 13.723 50.3549 13.7507C50.2775 13.7783 50.2039 13.8127 50.1353 13.8525C50.0655 13.8923 50.0006 13.9388 49.9423 13.9897C49.8839 14.0407 49.8306 14.0971 49.7848 14.158C49.7392 14.2177 49.6998 14.2819 49.6681 14.3483C49.6363 14.4159 49.6109 14.4856 49.5957 14.5564C49.5793 14.6272 49.5703 14.7003 49.5703 14.7722C49.5703 14.8441 49.5793 14.9172 49.5957 14.9881C49.6109 15.0589 49.6363 15.1286 49.6681 15.195C49.6998 15.2625 49.7392 15.3266 49.7848 15.3864C49.8306 15.4473 49.8839 15.5037 49.9423 15.5547C50.0006 15.6056 50.0655 15.6521 50.1353 15.692C50.2039 15.7318 50.2775 15.7661 50.3549 15.7937C50.4311 15.8215 50.511 15.8425 50.5923 15.8569C50.6735 15.8712 50.7574 15.879 50.8399 15.879C50.9223 15.879 51.0062 15.8712 51.0887 15.8569C51.1687 15.8425 51.2486 15.8215 51.3261 15.7937C51.4022 15.7661 51.476 15.7318 51.5444 15.692C51.6142 15.6521 51.6791 15.6056 51.7374 15.5547C51.7958 15.5037 51.8491 15.4473 51.8949 15.3864C51.9418 15.3266 51.9799 15.2625 52.0116 15.195C52.0447 15.1286 52.0688 15.0589 52.0853 14.9881C52.1017 14.9172 52.1094 14.8441 52.1094 14.7722C52.1094 14.7003 52.1017 14.6272 52.0853 14.5564Z" fill="#31C5A1"/>
<path d="M70.2305 3.74837H62.6824C61.9812 3.74837 61.4128 4.24388 61.4128 4.85514V5.81073H57.873C57.1718 5.81073 56.6034 6.30623 56.6034 6.9175V7.23603C54.54 7.07898 53.8612 6.73788 51.9663 5.78517C50.5089 5.05248 48.306 3.94516 44.3392 2.39026C44.3207 2.38296 44.3022 2.3762 44.2833 2.36979C42.9921 1.92685 39.6079 1.05539 35.9934 2.48344L30.8849 4.07809L26.5786 0.324145C26.083 -0.108048 25.2791 -0.108048 24.7833 0.324145L10.6461 12.6488C10.1888 13.0476 10.1011 13.739 10.6461 14.2141L34.8036 35.2744C35.1901 35.6116 36.0953 35.7136 36.599 35.2744L49.5057 24.0226C49.8413 24.0479 50.1895 24.0615 50.5504 24.0615C53.8672 24.0615 56.8012 22.0779 58.4796 19.9159H70.2305C70.9317 19.9159 71.5001 19.4205 71.5001 18.8092V4.85514C71.5001 4.24388 70.9317 3.74837 70.2305 3.74837ZM25.681 2.67193L28.5744 5.19448C27.7143 5.65822 26.7198 5.90635 25.681 5.90635C24.6418 5.90635 23.6474 5.65834 22.7873 5.19448L25.681 2.67193ZM16.2328 15.9541L13.3393 13.4314L16.2328 10.9088C16.7648 11.6587 17.0493 12.5256 17.0493 13.4314C17.0493 14.3372 16.7649 15.2041 16.2328 15.9541ZM35.7014 32.9266L32.8084 30.4045C34.5748 29.4542 36.8278 29.4542 38.5944 30.4045L35.7014 32.9266ZM40.4235 28.81C37.6181 27.0359 33.7848 27.0359 30.9794 28.81L18.0618 17.5485C19.0532 16.3598 19.5884 14.9319 19.5884 13.4314C19.5884 11.9307 19.0532 10.503 18.0618 9.31433L20.9586 6.78912C22.3219 7.6534 23.9596 8.12001 25.681 8.12001C27.4023 8.12001 29.04 7.6534 30.4035 6.78912L33.1495 9.18295C32.557 9.2592 31.9791 9.42943 31.4403 9.69117C30.5303 10.1332 29.8164 10.7952 29.3718 11.596C27.9397 11.8272 26.614 12.4316 25.574 13.3382C22.7524 15.7981 22.7524 19.8005 25.574 22.2604C26.9849 23.4903 28.838 24.1053 30.6912 24.1053C32.5443 24.1053 34.3976 23.4903 35.8085 22.2604C36.7263 21.4602 37.3693 20.4768 37.6913 19.4049L41.9778 20.6733C41.4953 22.622 41.9895 24.6722 43.3226 26.2826L40.4235 28.81ZM32.7049 17.929C32.7161 17.9326 32.7273 17.9361 32.7385 17.9395L35.2771 18.6906C35.0855 19.4449 34.6516 20.1385 34.013 20.6952C32.1815 22.2918 29.201 22.2921 27.3697 20.6952C25.538 19.0985 25.538 16.5003 27.3697 14.9035C27.8113 14.5181 28.3328 14.217 28.9009 14.0128C29.1352 15.713 30.5396 17.2285 32.7049 17.929ZM45.1519 24.6877C44.6619 23.9915 44.3846 23.1969 44.3408 22.386C44.9489 22.7694 45.692 23.1448 46.5798 23.4429L45.1519 24.6877ZM56.6033 18.3679C55.4001 20.0876 53.0664 21.8477 50.5504 21.8477C50.0797 21.8477 49.6385 21.8185 49.2261 21.7665C49.2245 21.7662 49.2228 21.7661 49.2212 21.7658C46.4795 21.4186 45.0047 20.0601 44.5186 19.5222C44.4926 19.4891 44.3823 19.3633 44.366 19.3423C44.218 19.1118 43.9755 18.9267 43.6663 18.8351L33.5725 15.8485C31.9618 15.3214 31.1103 14.1189 31.5006 12.9196C31.5007 12.9189 31.5011 12.9181 31.5012 12.9173C31.5017 12.9164 31.5019 12.9154 31.5022 12.9145C31.6836 12.3623 32.1002 11.9042 32.6761 11.6245C33.2481 11.3466 33.9095 11.2776 34.5401 11.43L45.9143 14.5723C46.5829 14.7571 47.2962 14.4343 47.508 13.8515C47.7199 13.2688 47.3497 12.6468 46.6813 12.4621L37.6353 9.96301L37.5563 9.89415C37.5555 9.89349 37.5548 9.89272 37.5539 9.89206L32.8706 5.80918L36.8961 4.55256C36.9096 4.54824 36.9265 4.54282 36.9398 4.53806C36.9432 4.53685 36.9499 4.53462 36.9531 4.5334C36.9705 4.52733 36.9874 4.52091 37.0043 4.51415C39.7257 3.42376 42.3125 4.07643 43.3265 4.42018C47.1583 5.9233 49.2035 6.95137 50.6977 7.70253C52.7752 8.74699 53.7762 9.25024 56.6033 9.45377V18.3679ZM61.4128 17.7022H59.1425V8.02427H61.4128V17.7022ZM68.961 17.7022H63.9518V5.96191H68.961V17.7022Z" fill="#31C5A1"/>
</g>
</g>
<defs>
<filter id="filter0_d_2_312" x="2.5" y="0" width="73" height="64.6616" filterUnits="userSpaceOnUse" color-interpolation-filters="sRGB">
<feFlood flood-opacity="0" result="BackgroundImageFix"/>
<feColorMatrix in="SourceAlpha" type="matrix" values="0 0 0 0 0 0 0 0 0 0 0 0 0 0 0 0 0 0 127 0" result="hardAlpha"/>
<feOffset dy="4"/>
<feGaussianBlur stdDeviation="2"/>
<feColorMatrix type="matrix" values="0 0 0 0 0 0 0 0 0 0 0 0 0 0 0 0 0 0 0.25 0"/>
<feBlend mode="normal" in2="BackgroundImageFix" result="effect1_dropShadow_2_312"/>
<feBlend mode="normal" in="SourceGraphic" in2="effect1_dropShadow_2_312" result="shape"/>
</filter>
<clipPath id="clip0_2_312">
<path d="M0 5C0 2.23858 2.23858 0 5 0H73C75.7614 0 78 2.23858 78 5V63C78 65.7614 75.7614 68 73 68H5C2.23858 68 0 65.7614 0 63V5Z" fill="white"/>
</clipPath>
</defs>
</svg>
