<svg width="53" height="60" viewBox="0 0 53 60" fill="none" xmlns="http://www.w3.org/2000/svg">
<path d="M0 5C0 2.23858 2.23858 0 5 0H48C50.7614 0 53 2.23858 53 5V55C53 57.7614 50.7614 60 48 60H5C2.23858 60 0 57.7614 0 55V5Z" fill="#EEEAFF"/>
<path d="M21.6491 4.6875C22.4441 4.6875 23.0893 4.26843 23.0893 3.75C23.0893 3.23157 22.4441 2.8125 21.6491 2.8125H21.6347C20.8397 2.8125 20.2031 3.23157 20.2031 3.75C20.2031 4.26843 20.8541 4.6875 21.6491 4.6875Z" fill="#582EFF"/>
<path d="M25.9246 4.6875H30.2452C31.0416 4.6875 31.6855 4.26843 31.6855 3.75C31.6855 3.23157 31.0416 2.8125 30.2452 2.8125H25.9246C25.1282 2.8125 24.4844 3.23157 24.4844 3.75C24.4844 4.26843 25.1282 4.6875 25.9246 4.6875Z" fill="#582EFF"/>
<path d="M43.2252 0.0028125C43.218 0.0028125 43.2137 0 43.2065 0H8.6413C3.87561 0 0 2.5228 0 5.625V53.4375C0 57.0554 4.52373 60 10.0815 60H41.7663C47.3242 60 51.8478 57.0554 51.8478 53.4375V5.62687C51.8478 2.52843 47.9809 0.009375 43.2252 0.0028125ZM8.6413 1.875H43.1922C43.198 1.875 43.2008 1.87688 43.2065 1.87688C46.3838 1.87688 48.9674 3.55875 48.9674 5.62687H2.88043V5.625C2.88043 3.55687 5.46419 1.875 8.6413 1.875ZM41.7663 54.375H25.9239H10.0815C6.11085 54.375 2.88043 52.2721 2.88043 49.6875V48.75H25.9239H48.9674V49.6875C48.9674 52.2721 45.7369 54.375 41.7663 54.375ZM2.88043 7.50187H48.9674V46.875H2.88043V7.50187ZM41.7663 58.125H10.0815C6.59908 58.125 3.68841 56.507 3.02446 54.3657C4.84489 55.5291 7.33647 56.25 10.0815 56.25H41.7663C44.5115 56.25 47.0029 55.5291 48.8234 54.3657C48.1595 56.507 45.2486 58.125 41.7663 58.125Z" fill="#582EFF"/>
<path d="M30.2429 51.5625C30.2429 50.0118 28.3045 48.75 25.9222 48.75C23.54 48.75 21.6016 50.0118 21.6016 51.5625C21.6016 53.1132 23.54 54.375 25.9222 54.375C28.3045 54.375 30.2429 53.1132 30.2429 51.5625ZM25.9222 52.5C25.1272 52.5 24.482 52.08 24.482 51.5625C24.482 51.045 25.1272 50.625 25.9222 50.625C26.7172 50.625 27.3624 51.045 27.3624 51.5625C27.3624 52.08 26.7172 52.5 25.9222 52.5Z" fill="#582EFF"/>
<path d="M12.2148 32.8073C12.2249 32.8073 12.2336 32.811 12.2436 32.811H39.6079C41.5938 32.811 43.2084 31.7601 43.2084 30.4673C43.2084 29.1744 41.5938 28.1235 39.6079 28.1235H12.2436C10.259 28.1235 8.64453 29.1744 8.64453 30.4664C8.64453 31.7517 10.2432 32.7969 12.2148 32.8073ZM39.6079 29.9985C40.0038 29.9985 40.328 30.2094 40.328 30.4673C40.328 30.7251 40.0038 30.936 39.6079 30.936H12.258C12.2523 30.936 12.2494 30.9342 12.2436 30.9342C11.8476 30.9342 11.525 30.7242 11.525 30.4664C11.525 30.2085 11.8476 29.9985 12.2436 29.9985H39.6079Z" fill="#582EFF"/>
<path d="M39.6079 33.7485H12.2436C10.259 33.7485 8.64453 34.7994 8.64453 36.0914C8.64453 37.3767 10.2432 38.4219 12.2148 38.4323C12.2249 38.4323 12.2336 38.436 12.2436 38.436H39.6079C41.5938 38.436 43.2084 37.3851 43.2084 36.0923C43.2084 34.7994 41.5938 33.7485 39.6079 33.7485ZM12.258 36.561C12.2523 36.561 12.2494 36.5592 12.2436 36.5592C11.8476 36.5592 11.525 36.3492 11.525 36.0914C11.525 35.8335 11.8476 35.6235 12.2436 35.6235H39.6079C40.0038 35.6235 40.328 35.8344 40.328 36.0923C40.328 36.3501 40.0038 36.561 39.6079 36.561H12.258Z" fill="#582EFF"/>
<path d="M33.1236 40.3115H18.7215C17.925 40.3115 17.2812 40.7306 17.2812 41.249C17.2812 41.7674 17.925 42.1865 18.7215 42.1865H33.1236C33.92 42.1865 34.5639 41.7674 34.5639 41.249C34.5639 40.7306 33.92 40.3115 33.1236 40.3115Z" fill="#582EFF"/>
<path d="M19.5177 24.7485C19.5249 24.7532 19.5336 24.756 19.5408 24.7598C21.2806 25.6889 23.5044 26.2485 25.9253 26.2485C31.4832 26.2485 36.0068 23.3039 36.0068 19.686C36.0068 16.0682 31.4832 13.1235 25.9253 13.1235C20.3675 13.1235 15.8438 16.0682 15.8438 19.686C15.8423 21.7223 17.2739 23.5439 19.5177 24.7485ZM22.3593 23.7342C23.1513 22.9776 24.4736 22.4985 25.9253 22.4985C27.3757 22.4985 28.6977 22.9785 29.4899 23.7332C28.4341 24.1298 27.2273 24.3735 25.9239 24.3735C24.6204 24.3735 23.415 24.1298 22.3593 23.7342ZM25.9239 20.6235C25.1289 20.6235 24.4837 20.2035 24.4837 19.686C24.4837 19.1685 25.1289 18.7485 25.9239 18.7485C26.7189 18.7485 27.3642 19.1685 27.3642 19.686C27.3642 20.2035 26.7189 20.6235 25.9239 20.6235ZM25.9239 14.9985C29.8946 14.9985 33.125 17.1014 33.125 19.686C33.125 20.7389 32.569 21.6998 31.6659 22.4835C31.0799 21.9801 30.3368 21.5705 29.5028 21.2582C29.9722 20.8101 30.2446 20.2682 30.2446 19.686C30.2446 18.1355 28.3059 16.8735 25.9239 16.8735C23.5417 16.8735 21.6032 18.1355 21.6032 19.686C21.6032 20.2682 21.8768 20.8101 22.3449 21.2601C21.5124 21.5723 20.7678 21.9819 20.1831 22.4855C19.2787 21.7007 18.7227 20.7389 18.7227 19.686C18.7227 17.1014 21.9532 14.9985 25.9239 14.9985Z" fill="#582EFF"/>
</svg>
